<?xml version="1.0" standalone="no"?>
<!DOCTYPE svg PUBLIC "-//W3C//DTD SVG 20010904//EN"
 "http://www.w3.org/TR/2001/REC-SVG-20010904/DTD/svg10.dtd">
<svg version="1.0" xmlns="http://www.w3.org/2000/svg"
 width="375.000000pt" height="375.000000pt" viewBox="0 0 375.000000 375.000000"
 preserveAspectRatio="xMidYMid meet">

<g transform="translate(0.000000,375.000000) scale(0.100000,-0.100000)"
fill="#000000" stroke="none">
<path d="M1 3413 c1 -186 4 -324 6 -308 13 97 69 237 128 320 122 172 307 286
515 318 14 3 -127 5 -312 6 l-338 1 1 -337z"/>
<path d="M3175 3735 c246 -53 447 -217 545 -443 l29 -67 1 263 0 262 -317 -1
c-287 -1 -312 -2 -258 -14z"/>
<path d="M1790 3513 c-453 -40 -823 -359 -941 -810 -27 -103 -36 -300 -19
-429 60 -484 375 -1064 922 -1699 53 -61 102 -116 111 -123 13 -11 25 -2 80
60 510 569 856 1161 957 1636 30 137 37 360 17 477 -79 449 -414 791 -857 874
-67 12 -208 20 -270 14z m291 -197 c316 -80 544 -299 643 -616 37 -117 46
-299 22 -419 -22 -108 -39 -160 -83 -246 -126 -252 -361 -428 -638 -476 -107
-18 -313 -7 -405 24 -70 23 -163 62 -185 80 -5 4 -29 20 -52 35 -151 98 -288
278 -346 453 -74 221 -58 488 40 684 131 260 355 435 628 491 106 21 270 17
376 -10z"/>
<path d="M1 318 l-1 -318 263 0 262 1 -65 27 c-225 96 -392 301 -445 547 -12
54 -13 29 -14 -257z"/>
<path d="M3721 431 c-60 -164 -220 -326 -400 -402 l-66 -28 248 -1 247 0 0
245 c0 135 -2 245 -4 245 -2 0 -13 -27 -25 -59z"/>
</g>
</svg>
